<svg xmlns="http://www.w3.org/2000/svg" width="680" height="820" viewBox="0 0 680 820" role="img">
<title>Enrollment and discovery flow</title>
<desc>A host is discovered in a site, an eligible MCE is chosen by segment reach, the IR reconciler acquires the lease and copies BMC credentials, the host-install Argo WorkflowTemplate runs: preflight checks boot method, NMState VLAN config creates NMStateConfig for the boot NIC (VLAN ID from mce_reach, NIC name from host_nics), create-BMH lets Ironic boot the discovery ISO on the tagged NIC, the classifier stamps the class label, and the host becomes spare in its home MCE.</desc>
<style>
  text{font-family:ui-sans-serif,system-ui,-apple-system,"Segoe UI",Roboto,sans-serif;}
  .th{font-size:13px;font-weight:600;fill:#33322e;}
  .ts{font-size:11px;fill:#6b6a63;}
  .arr{stroke:#73726c;stroke-width:1.5;fill:none;}
  rect.c-teal,.c-teal>rect{fill:#dcece7;stroke:#6fa89a;}
  rect.c-blue,.c-blue>rect{fill:#dde6f1;stroke:#6f8fb2;}
  rect.c-purple,.c-purple>rect{fill:#e7e1f1;stroke:#9180b3;}
  rect.c-amber,.c-amber>rect{fill:#f5ecd6;stroke:#c6a558;}
  rect.c-gray,.c-gray>rect{fill:#f0eee7;stroke:#b3b2aa;}
</style>
<defs><marker id="arrow" viewBox="0 0 10 10" refX="8" refY="5" markerWidth="6" markerHeight="6" orient="auto-start-reverse"><path d="M2 1L8 5L2 9" fill="none" stroke="context-stroke" stroke-width="1.5" stroke-linecap="round" stroke-linejoin="round"/></marker></defs>
<rect width="680" height="820" fill="#faf9f5"/>

<!-- 1. Discovered -->
<g class="c-gray"><rect x="170" y="44" width="340" height="56" rx="8" stroke-width="0.5"/></g>
<text class="th" x="340" y="66" text-anchor="middle" dominant-baseline="central">Discovered</text>
<text class="ts" x="340" y="84" text-anchor="middle" dominant-baseline="central">switch / OME / Intersight finds host</text>
<line x1="340" y1="100" x2="340" y2="136" class="arr" marker-end="url(#arrow)"/>

<!-- 2. Choose MCE -->
<g class="c-blue"><rect x="170" y="140" width="340" height="56" rx="8" stroke-width="0.5"/></g>
<text class="th" x="340" y="162" text-anchor="middle" dominant-baseline="central">Choose MCE</text>
<text class="ts" x="340" y="180" text-anchor="middle" dominant-baseline="central">EligibleMCEs by segment reach</text>
<line x1="340" y1="196" x2="340" y2="232" class="arr" marker-end="url(#arrow)"/>

<!-- 3. IR reconciler -->
<g class="c-purple"><rect x="170" y="236" width="340" height="56" rx="8" stroke-width="0.5"/></g>
<text class="th" x="340" y="258" text-anchor="middle" dominant-baseline="central">IR reconciler</text>
<text class="ts" x="340" y="276" text-anchor="middle" dominant-baseline="central">acquire lease · copy BMC creds · launch workflow</text>
<line x1="340" y1="292" x2="340" y2="328" class="arr" marker-end="url(#arrow)"/>

<!-- 4. Preflight [Argo] -->
<g class="c-amber"><rect x="170" y="332" width="340" height="56" rx="8" stroke-width="1"/></g>
<text class="th" x="340" y="354" text-anchor="middle" dominant-baseline="central">Preflight [Argo]</text>
<text class="ts" x="340" y="372" text-anchor="middle" dominant-baseline="central">Redfish virtual-media  |  IPMI + PXE check</text>
<line x1="340" y1="388" x2="340" y2="424" class="arr" marker-end="url(#arrow)"/>

<!-- 5. NMState VLAN config [Argo] -->
<g class="c-amber"><rect x="170" y="428" width="340" height="56" rx="8" stroke-width="1"/></g>
<text class="th" x="340" y="450" text-anchor="middle" dominant-baseline="central">NMState VLAN config [Argo]</text>
<text class="ts" x="340" y="468" text-anchor="middle" dominant-baseline="central">mce_reach.vlan_id + host_nics → NMStateConfig</text>
<line x1="340" y1="484" x2="340" y2="520" class="arr" marker-end="url(#arrow)"/>

<!-- 6. Boot discovery ISO -->
<g class="c-blue"><rect x="170" y="524" width="340" height="56" rx="8" stroke-width="0.5"/></g>
<text class="th" x="340" y="546" text-anchor="middle" dominant-baseline="central">Boot discovery ISO</text>
<text class="ts" x="340" y="564" text-anchor="middle" dominant-baseline="central">Ironic creates BMH · VLAN-tagged NIC gets DHCP</text>
<line x1="340" y1="580" x2="340" y2="616" class="arr" marker-end="url(#arrow)"/>

<!-- 7. Inspect + classify -->
<g class="c-blue"><rect x="170" y="620" width="340" height="56" rx="8" stroke-width="0.5"/></g>
<text class="th" x="340" y="642" text-anchor="middle" dominant-baseline="central">Inspect + classify</text>
<text class="ts" x="340" y="660" text-anchor="middle" dominant-baseline="central">introspection → class label stamped</text>
<line x1="340" y1="676" x2="340" y2="712" class="arr" marker-end="url(#arrow)"/>

<!-- 8. Spare in home MCE -->
<g class="c-teal"><rect x="170" y="716" width="340" height="56" rx="8" stroke-width="0.5"/></g>
<text class="th" x="340" y="738" text-anchor="middle" dominant-baseline="central">Spare in home MCE</text>
<text class="ts" x="340" y="756" text-anchor="middle" dominant-baseline="central">gripped · claimable · counts as headroom</text>

<!-- Legend -->
<rect class="c-gray" x="44" y="798" width="11" height="11" rx="3"/><text class="ts" x="61" y="804" dominant-baseline="central">discovered</text>
<rect class="c-purple" x="160" y="798" width="11" height="11" rx="3"/><text class="ts" x="177" y="804" dominant-baseline="central">IR reconciler</text>
<rect class="c-amber" x="296" y="798" width="11" height="11" rx="3"/><text class="ts" x="313" y="804" dominant-baseline="central">workflow step</text>
<rect class="c-blue" x="430" y="798" width="11" height="11" rx="3"/><text class="ts" x="447" y="804" dominant-baseline="central">execution</text>
<rect class="c-teal" x="540" y="798" width="11" height="11" rx="3"/><text class="ts" x="557" y="804" dominant-baseline="central">ready</text>
</svg>
